<svg xmlns="http://www.w3.org/2000/svg" width="190px" height="31px" viewBox="0 0 188.783 30.048">
  <path fill="#FFFFFF" d="M55.016 25.654h-1.354l-3.094-8.692c-.256-.715-.562-1.61-.87-2.632h-.05c-.306.997-.613 1.84-.894 2.632l-3.222 8.692h-1.38L38.298 8.73h2.02l3.76 11.248c.305.95.586 1.79.816 2.64h.05c.23-.82.56-1.66.894-2.58l2.917-7.98-1.16-3.32h1.97l3.86 11.14c.33.98.66 1.79.89 2.61h.05c.2-.84.43-1.61.74-2.53l3.68-11.22h1.97l-5.75 16.92zm14.63-1.253c-.948.97-2.277 1.51-3.837 1.51-1.51 0-2.82-.51-3.76-1.48-1.1-1.12-1.69-2.83-1.69-4.83 0-1.99.61-3.65 1.69-4.78.97-.99 2.27-1.56 3.78-1.56 1.56 0 2.86.57 3.83 1.56 1.07 1.13 1.68 2.79 1.68 4.78 0 2-.62 3.68-1.71 4.81m-3.81-9.56c-2.28 0-3.58 1.84-3.58 4.71 0 2.86 1.35 4.76 3.6 4.76s3.6-1.894 3.6-4.755c0-2.865-1.31-4.706-3.63-4.706m10.07 11.07c-1.48 0-2.12-.95-2.12-2.226V7.554h1.86V22.84c0 1.15.28 1.38.99 1.38.12 0 .33 0 .64-.073l.23 1.353c-.56.282-1 .41-1.61.41m7.06 0c-1.74 0-2.59-1.023-2.59-2.583v-8.182h-1.96V13.56h1.96v-2.657l1.862-.638v3.297h3.71l-.665 1.584h-3.03v7.61c0 1.02.38 1.48 1.175 1.48.87 0 1.66-.49 2.147-.87l.586 1.33c-.89.66-2.07 1.2-3.19 1.2m5.94-5.98c0 2.3 1.33 4.34 4.01 4.34 1.024 0 2.15-.41 2.865-.87l.567 1.28c-.87.71-2.406 1.22-3.81 1.22-3.784 0-5.625-3.1-5.625-6.55 0-3.506 1.992-6.11 4.905-6.11 3.12 0 4.83 2.48 4.83 6.234v.435h-7.74zm2.94-5.09c-1.79 0-2.913 1.58-2.913 3.5h5.7c0-1.69-.94-3.51-2.78-3.51m13.03.59c-.25-.1-.64-.207-1.15-.207-.71 0-1.89.61-2.66 1.45v8.97h-1.87V13.55h1.54l.26 1.38c1.66-1.505 2.583-1.685 3.45-1.685.537 0 1 .204 1.23.36l-.794 1.813zm67.15 4.5c0 2.3 1.33 4.343 4.01 4.343 1.02 0 2.15-.41 2.86-.87l.57 1.28c-.87.71-2.4 1.22-3.806 1.22-3.78 0-5.62-3.1-5.62-6.55 0-3.5 1.994-6.11 4.91-6.11 3.115 0 4.83 2.48 4.83 6.23v.43h-7.74zm2.95-5.08c-1.79 0-2.915 1.583-2.915 3.5h5.7c.002-1.687-.944-3.503-2.784-3.503m13.03.59c-.26-.1-.64-.21-1.15-.21-.72 0-1.89.613-2.66 1.46v8.97h-1.87V13.567h1.532l.255 1.38c1.663-1.51 2.583-1.69 3.45-1.69.538 0 1 .206 1.23.36l-.794 1.815zm-78.38 10.48c-1.74 0-2.79-.46-3.58-.92l.71-1.46c.562.352 1.61.87 2.94.87 1.48 0 2.56-.67 2.56-1.79 0-2.97-5.5-1.92-5.5-6.16 0-1.74 1.253-3.2 4.014-3.2 1.275 0 2.245.28 3.04.64v1.64c-.84-.36-1.71-.717-2.968-.717-1.225 0-2.247.43-2.247 1.53 0 2.71 5.6 2.02 5.6 5.98 0 2.53-2.09 3.58-4.58 3.58m14.37-.25h-1.86V8.806h1.87v7.747H124l6.26-7.694h2.325l-6.93 8.28 7.55 8.51h-2.48l-6.72-7.62h-.02m13.14 7.87c-1.482 0-2.12-.95-2.12-2.23V7.54h1.865v15.29c0 1.15.28 1.38 1 1.38.13 0 .338 0 .64-.07l.23 1.35c-.56.28-.993.41-1.61.41m11.55-.26l-.48-1.26c-.9.76-2.3 1.51-3.913 1.51-1.63 0-3.676-.85-3.676-4.25v-8.1h1.86v7.92c0 2.02.85 2.81 2.36 2.81 1.53 0 2.71-.97 3.22-1.61v-9.12h1.865v7.03c0 3.81.08 4.55.26 5.06h-1.487zm11.816-9.69l-2.99 9.69h-1.63l-4.045-12.09h1.89l2.96 9.53h.08l2.99-9.54h1.686l3.014 9.56h.072l2.913-9.56h1.812l-3.992 12.1h-1.69l-3.02-9.69m-130.5 7.49h.68c.14 0 .26.02.35.058.287.085.427.303.427.553 0 .36-.27.54-.52.6v.01c.15.07.38.51.64.99h-.51c-.29-.52-.46-.87-.56-.88h-.08v.88h-.45v-2.21zm.55.98c.23 0 .43-.09.43-.32 0-.134-.06-.236-.177-.27-.062-.03-.14-.03-.24-.03h-.12v.62h.11z"/>
  <path fill="#a0c4e6" d="M18.566.427C17.426.153 16.246 0 15.023 0 13.8 0 12.617.152 11.48.428v3.97h7.086V.428z"/>
  <path fill="#ef3e42" d="M11.48 11.48h7.086v7.088H11.48z"/>
  <path fill="#9acd6e" d="M11.48 18.567h7.086v7.087H11.48z"/>
  <path fill="#429ed6" d="M11.48 29.62c1.137.275 2.32.428 3.543.428 1.223 0 2.404-.15 3.543-.42v-3.97H11.48v3.97z"/>
  <path fill="#cae3b2" d="M11.48 4.394h7.086v7.087H11.48zM4.393 11.48h7.087v7.088H4.393z"/>
  <path fill="#7ac143" d="M4.393 18.567h7.087v7.087H4.393z"/>
  <path fill="#007bc6" d="M4.393 25.654c1.92 1.92 4.36 3.307 7.087 3.967v-3.96H4.393z"/>
  <path fill="#9acd6e" d="M4.393 4.394h7.087v7.087H4.393z"/>
  <path fill="#429ed6" d="M11.48.427c-2.727.66-5.168 2.048-7.087 3.967h7.087V.427z"/>
  <path fill="#007bc6" d="M4.393 25.654v-7.087H.426c.662 2.725 2.048 5.17 3.967 7.087z"/>
  <path fill="#429ed6" d="M4.393 4.394c-1.92 1.92-3.305 4.36-3.966 7.087h3.97V4.4z"/>
  <path fill="#9acd6e" d="M18.566 11.48h7.086v7.088h-7.086z"/>
  <path fill="#7ac143" d="M18.566 18.567h7.086v7.087h-7.086z"/>
  <path fill="#007bc6" d="M25.653 25.654h-7.087v3.967c2.725-.66 5.17-2.04 7.087-3.96z"/>
  <path fill="#7ac143" d="M18.566 4.394h7.086v7.087h-7.086z"/>
  <path fill="#007bc6" d="M18.566.427v3.967h7.086c-1.917-1.92-4.36-3.307-7.086-3.966zm7.087 25.227c1.92-1.918 3.305-4.36 3.966-7.087h-3.97v7.087zm0-21.26v7.087h3.966c-.66-2.72-2.05-5.16-3.97-7.08z"/>
  <path fill="#a0c4e6" d="M.426 11.48C.152 12.62 0 13.8 0 15.025c0 1.223.152 2.405.427 3.543h3.97V11.48H.427z"/>
  <path fill="#429ed6" d="M29.62 18.567c.274-1.138.427-2.32.427-3.543 0-1.223-.15-2.403-.42-3.543h-3.97v7.09h3.97z"/>
  <path fill="#FFFFFF" d="M32.788 24.583c0 1.127-.914 2.04-2.04 2.04-1.128 0-2.042-.913-2.042-2.04s.914-2.04 2.04-2.04c1.128 0 2.042.913 2.042 2.04zm-2.042-1.61c-.89 0-1.61.72-1.61 1.61 0 .89.72 1.61 1.61 1.61.89 0 1.612-.72 1.612-1.61 0-.89-.722-1.61-1.612-1.61z"/>
</svg>
